<svg id="Layer_1" data-name="Layer 1" xmlns="http://www.w3.org/2000/svg" viewBox="0 0 375.07 432.64"><path d="M322.47-367.54c65,2.18,116.13,26.82,153.54,77.19,26.65,35.87,39.14,77,35.7,121.56C506.41-100.16,472.94-48.67,413-14.62c-16,4.61-24.59,18-34.75,29.53-12.36,14-24.42,28.21-36.84,42.13-9.73,10.9-23.79,10.7-33.47-.32-17.71-20.14-35.26-40.43-53-60.55a21.82,21.82,0,0,0-7-5.35c-43.87-20.32-76-52.38-95.14-96.74-16.83-39-20.13-79.51-9.31-120.67,12.28-46.68,38.63-83.59,79.13-110.14a183.89,183.89,0,0,1,70.62-27.66C303.67-366.2,314.36-366.7,322.47-367.54ZM151.79-179a167.52,167.52,0,0,0,10,56.85c17.19,47,49,80.51,94.41,101.3A24.19,24.19,0,0,1,264.07-15c17.77,20.09,35.36,40.35,53,60.55,6.12,7,9.56,7,15.69,0,17-19.46,33.81-39,51-58.32a40.21,40.21,0,0,1,12.13-9.09c17.18-8.4,33.28-18.36,47.06-31.67q63.6-61.43,53.23-149.32a162.61,162.61,0,0,0-46.92-97.21c-37.9-38.25-84.14-56.28-138.33-52.18-34.88,2.64-66.17,14.92-93.34,36.82C174.16-280.39,152.69-234.6,151.79-179Z" transform="translate(-137.2 367.54)"/><path d="M325-29c-84,.66-151.25-68.57-151.23-150.86,0-82.79,66.42-151,150.62-151.19,83-.17,151.39,65.17,151.53,151.35A150.29,150.29,0,0,1,326-29Zm-.38-14.17c74.34.59,137-59.39,137.14-136.64.13-74.37-57.67-136.79-136.69-137-78.17-.19-137.2,61.61-137.1,137C188.06-101.92,251.41-42.72,324.61-43.19Z" transform="translate(-137.2 367.54)"/><path d="M389.68-158.86c11.63,3.5,14.33,7.23,14.34,19.25v23.5c0,8.74-5.17,14.55-13.86,15.08-3.44.21-4.74,1.75-6.07,4.61-11.76,25.24-32,38.76-59.51,38.71-26.7-.06-46.54-13.18-58.37-37.42-1.84-3.78-3.47-6-8.23-6.07-6.27-.06-11.7-5.59-11.92-12q-.57-16.23,0-32.47c.26-7,4.59-10.63,13.83-13v-35.18c-1.76-.6-3.65-1.09-5.42-1.87-5.13-2.28-8.39-6.15-8.49-11.89-.18-10.49-.3-21,0-31.48.22-6.7,4.9-11.52,12.07-12.57,3.08-.45,4.19-1.79,5-4.43,11.8-40.83,60.17-59.06,96.31-36.21,13.65,8.64,22.63,20.82,27.36,36.16.83,2.67,1.71,3.95,4.84,4.44,8,1.25,12.38,6.8,12.46,15,.09,9,.07,18,0,27,0,7.72-3.55,12.23-10.94,14.81-1.3.45-3.22,1.83-3.24,2.82C389.59-181,389.68-169.83,389.68-158.86Zm-14.36-1.22c0-9-.14-19.3.09-29.6.07-3.44-.82-5-4.35-5.77-2.27-.48-4.17-2.52-6.31-3.72-1.76-1-3.63-2.52-5.46-2.53-23-.18-46-.14-69-.07a8.07,8.07,0,0,0-4.18,1.05c-3.81,2.42-7.45,5.11-11.55,8v32.84c4.3,2.85,7.61,5.17,11.06,7.27a9.36,9.36,0,0,0,4.39,1.49q34.74.12,69.46,0a9.14,9.14,0,0,0,4.46-1.39C367.41-154.62,370.7-157,375.32-160.08Zm-2.64-92.58c-4.42-19.88-26.38-36.12-48.53-35.46-22.35.66-44,17.24-47,35.67,2.68,1.83,5.16,3.7,7.8,5.28,1.73,1,3.69,2.34,5.55,2.35,23,.16,45.94.13,68.92.06a7.85,7.85,0,0,0,4.1-1.12c3.08-2.05,6-4.41,9.16-6.78ZM279.57-100.73c6.1,15.67,25.81,31,50.69,28.67,19.33-1.81,36.84-17.41,39.87-29.55-1.22-.78-2.92-1.29-3.64-2.43-2.82-4.41-7-4.08-11.39-4.07-18.47.09-36.94.3-55.39-.08-7.88-.2-15.1.17-20.14,7.46Zm9.59-21.82h71.41v-14.14H289.16Zm-.11-93.9H360.6v-13.49H289.05Zm86.36,72.61v28.45h14.14v-28.45Zm14.5-65.22c0-8.92.06-17.5-.1-26.07a3.4,3.4,0,0,0-2.19-2.51c-4.05-.26-8.12-.12-12.19-.12v28.7ZM274.47-209c0-9,.1-17.25-.12-25.54,0-1.1-1.59-3-2.58-3.09-3.74-.37-7.54-.15-11.49-.15V-209Zm-14.28,93.62h13.86v-28.4H260.19Z" transform="translate(-137.2 367.54)"/></svg>